<svg width="20" height="20" viewBox="0 0 20 20" fill="none" xmlns="http://www.w3.org/2000/svg">
<g id="24 / basic / heart">
<path id="icon" fill-rule="evenodd" clip-rule="evenodd" d="M10.9189 2.24669C11.8103 1.81035 12.588 1.66662 13.7944 1.66664C16.8816 1.67942 19.1667 4.28316 19.1667 7.59986C19.1667 10.1314 17.7551 12.5769 15.126 14.9415C13.7459 16.1827 11.9839 17.4111 10.722 18.0645L10 18.4384L9.278 18.0645C8.0161 17.4111 6.25408 16.1827 4.87404 14.9415C2.24486 12.5769 0.833336 10.1314 0.833336 7.59986C0.833336 4.24768 3.09703 1.66663 6.21212 1.66663C7.37523 1.66663 8.19277 1.82394 9.10151 2.2734C9.4179 2.42989 9.71516 2.61551 9.99164 2.82976C10.2792 2.60279 10.5888 2.40823 10.9189 2.24669Z" fill="#EF4444"/>
<path id="Path" fill-rule="evenodd" clip-rule="evenodd" d="M14.0114 13.7023C16.3218 11.6244 17.5 9.58317 17.5 7.59982C17.5 5.15739 15.9068 3.34203 13.7909 3.33326C12.8225 3.33325 12.2882 3.432 11.6516 3.74361C11.26 3.93528 10.9126 4.19404 10.6095 4.52288L10.0019 5.18217L9.38878 4.52806C9.0924 4.21189 8.75 3.95889 8.36261 3.76729C7.70677 3.44291 7.1369 3.33325 6.21212 3.33325C4.0697 3.33325 2.5 5.12302 2.5 7.59982C2.5 9.58317 3.67819 11.6244 5.98856 13.7023C7.24818 14.8352 8.86753 15.9674 10 16.5613C11.1325 15.9674 12.7518 14.8352 14.0114 13.7023Z" fill="#EF4444"/>
</g>
</svg>
