<svg width="20" height="20" viewBox="0 0 20 20" fill="none" xmlns="http://www.w3.org/2000/svg">
<g id="24 / basic / heart">
<path id="icon" fill-rule="evenodd" clip-rule="evenodd" d="M13.7944 1.66676C12.588 1.66675 11.8103 1.81047 10.9189 2.24681C10.5888 2.40836 10.2792 2.60291 9.99164 2.82988C9.71516 2.61563 9.4179 2.43001 9.10151 2.27353C8.19277 1.82406 7.37523 1.66675 6.21212 1.66675C3.09703 1.66675 0.833336 4.2478 0.833336 7.59998C0.833336 10.1315 2.24486 12.577 4.87404 14.9417C6.25408 16.1829 8.0161 17.4112 9.278 18.0646L10 18.4385L10.722 18.0646C11.9839 17.4112 13.7459 16.1829 15.126 14.9417C17.7551 12.577 19.1667 10.1315 19.1667 7.59998C19.1667 4.28329 16.8816 1.67955 13.7944 1.66676ZM17.5 7.59997C17.5 9.58333 16.3218 11.6245 14.0114 13.7025C12.7518 14.8354 11.1325 15.9675 10 16.5615C8.86753 15.9675 7.24819 14.8354 5.98856 13.7025C3.67819 11.6245 2.5 9.58333 2.5 7.59997C2.5 5.12318 4.0697 3.33341 6.21212 3.33341C7.1369 3.33341 7.70677 3.44307 8.36261 3.76745C8.75001 3.95905 9.0924 4.21205 9.38878 4.52822L10.002 5.18233L10.6095 4.52304C10.9126 4.1942 11.26 3.93544 11.6516 3.74377C12.2882 3.43216 12.8225 3.33341 13.7909 3.33342C15.9068 3.34219 17.5 5.15755 17.5 7.59997Z" fill="#374151"/>
</g>
</svg>
